<svg width="14" height="14" viewBox="0 0 14 14" fill="none" xmlns="http://www.w3.org/2000/svg">
<path d="M12.8351 6.6843L7.3115 1.16066C7.09056 0.93971 6.78369 0.804688 6.44613 0.804688H2.14996C1.82441 0.804688 1.5122 0.934011 1.282 1.16421C1.05181 1.3944 0.922485 1.70662 0.922485 2.03216V6.32833C0.922485 6.66589 1.05751 6.97276 1.28459 7.19984L6.80824 12.7235C7.02918 12.9444 7.33605 13.0795 7.67361 13.0795C8.01116 13.0795 8.31803 12.9444 8.53898 12.7173L12.8351 8.42118C13.0622 8.20023 13.1973 7.89337 13.1973 7.55581C13.1973 7.21825 13.0561 6.90525 12.8351 6.6843ZM3.07057 3.87338C2.82641 3.87338 2.59225 3.77639 2.4196 3.60374C2.24695 3.43109 2.14996 3.19693 2.14996 2.95277C2.14996 2.70861 2.24695 2.47445 2.4196 2.3018C2.59225 2.12916 2.82641 2.03216 3.07057 2.03216C3.31473 2.03216 3.54889 2.12916 3.72154 2.3018C3.89418 2.47445 3.99118 2.70861 3.99118 2.95277C3.99118 3.19693 3.89418 3.43109 3.72154 3.60374C3.54889 3.77639 3.31473 3.87338 3.07057 3.87338V3.87338ZM10.2943 8.949L7.67361 11.5697L5.05294 8.949C4.77676 8.66668 4.60492 8.28616 4.60492 7.86268C4.60492 7.45574 4.76657 7.06548 5.05432 6.77773C5.34206 6.48999 5.73233 6.32833 6.13926 6.32833C6.56274 6.32833 6.9494 6.50018 7.22558 6.7825L7.67361 7.22439L8.12164 6.77636C8.39782 6.50018 8.78447 6.32833 9.20795 6.32833C9.61489 6.32833 10.0052 6.48999 10.2929 6.77773C10.5806 7.06548 10.7423 7.45574 10.7423 7.86268C10.7423 8.28616 10.5705 8.67281 10.2943 8.949Z" fill="white"/>
</svg>
