<svg width="13" height="13" viewBox="0 0 13 13" fill="none" xmlns="http://www.w3.org/2000/svg">
<path d="M8.11343 0.694336H1.85328C1.52773 0.694336 1.21552 0.823659 0.985324 1.05386C0.755128 1.28405 0.625805 1.59627 0.625805 1.92181V12.9691L3.08076 10.5141H11.6731C11.9986 10.5141 12.3109 10.3848 12.5411 10.1546C12.7712 9.92443 12.9006 9.61222 12.9006 9.28667V5.48147C10.4958 4.99333 8.60158 3.09912 8.11343 0.694336Z" fill="#F8F9FD"/>
<path d="M12.9006 2.93975V1.92181C12.9006 1.24056 12.3482 0.694336 11.6731 0.694336H10.6552L10.656 0.696733C11.0016 1.67233 11.7467 2.45895 12.6947 2.85991C12.7623 2.88851 12.831 2.91515 12.9006 2.93975Z" fill="#F8F9FD"/>
</svg>
