<svg width="13" height="14" viewBox="0 0 13 14" fill="none" xmlns="http://www.w3.org/2000/svg">
<path d="M7.40782 5.10086H6.18035V3.87338H7.40782V5.10086ZM7.40782 10.0108H6.18035V6.32833H7.40782V10.0108ZM6.79408 0.804688C5.98811 0.804687 5.19003 0.963436 4.44541 1.27187C3.70079 1.5803 3.02421 2.03238 2.4543 2.60229C1.30332 3.75327 0.6567 5.31434 0.6567 6.94207C0.6567 8.56981 1.30332 10.1309 2.4543 11.2819C3.02421 11.8518 3.70079 12.3038 4.44541 12.6123C5.19003 12.9207 5.98811 13.0795 6.79408 13.0795C8.42182 13.0795 9.98289 12.4328 11.1339 11.2819C12.2849 10.1309 12.9315 8.56981 12.9315 6.94207C12.9315 6.1361 12.7727 5.33802 12.4643 4.5934C12.1559 3.84877 11.7038 3.17219 11.1339 2.60229C10.564 2.03238 9.88738 1.5803 9.14276 1.27187C8.39814 0.963436 7.60006 0.804688 6.79408 0.804688V0.804688Z" fill="#F8F9FD"/>
</svg>
